<mxfile host="app.diagrams.net" modified="2022-02-16T13:26:39.840Z" agent="5.0 (X11)" etag="us9O0Pw_Xgbn-wvi2z28" version="16.5.6" type="github">
  <diagram id="aCLdq3pMCL_fj9yOFyJx" name="Page-1">
    <mxGraphModel dx="1128" dy="661" grid="1" gridSize="10" guides="1" tooltips="1" connect="1" arrows="1" fold="1" page="1" pageScale="1" pageWidth="850" pageHeight="1100" math="0" shadow="0">
      <root>
        <mxCell id="0" />
        <mxCell id="1" parent="0" />
        <mxCell id="4Js44yX8DcDGconch0QA-2" value="" style="endArrow=classic;html=1;rounded=0;edgeStyle=orthogonalEdgeStyle;curved=1;strokeWidth=4;" edge="1" parent="1">
          <mxGeometry width="50" height="50" relative="1" as="geometry">
            <mxPoint x="400" y="470" as="sourcePoint" />
            <mxPoint x="400" y="410" as="targetPoint" />
            <Array as="points">
              <mxPoint x="400" y="550" />
              <mxPoint x="250" y="550" />
              <mxPoint x="250" y="310" />
              <mxPoint x="400" y="310" />
            </Array>
          </mxGeometry>
        </mxCell>
        <mxCell id="4Js44yX8DcDGconch0QA-3" value="&lt;div&gt;vcpu_run( )-&amp;gt;vcpu_enter_guest( )&lt;/div&gt;&lt;div&gt;vcpu不断循环此函数&lt;br&gt;&lt;/div&gt;" style="text;html=1;strokeColor=none;fillColor=none;align=center;verticalAlign=middle;whiteSpace=wrap;rounded=0;" vertex="1" parent="1">
          <mxGeometry x="220" y="560" width="200" height="40" as="geometry" />
        </mxCell>
        <mxCell id="4Js44yX8DcDGconch0QA-5" value="vm enter&lt;br&gt;&lt;div&gt;kvm_x86_run-&amp;gt;vmx_vcpu_run&lt;/div&gt;" style="text;html=1;strokeColor=none;fillColor=none;align=center;verticalAlign=middle;whiteSpace=wrap;rounded=0;" vertex="1" parent="1">
          <mxGeometry x="400" y="470" width="200" height="40" as="geometry" />
        </mxCell>
        <mxCell id="4Js44yX8DcDGconch0QA-6" value="vm exit&lt;br&gt;&lt;div&gt;kvm_x86_run&lt;/div&gt;" style="text;html=1;strokeColor=none;fillColor=none;align=center;verticalAlign=middle;whiteSpace=wrap;rounded=0;" vertex="1" parent="1">
          <mxGeometry x="400" y="360" width="90" height="30" as="geometry" />
        </mxCell>
      </root>
    </mxGraphModel>
  </diagram>
</mxfile>
